<svg width="24" height="24" viewBox="0 0 24 24" fill="none" xmlns="http://www.w3.org/2000/svg">
<path fill-rule="evenodd" clip-rule="evenodd" d="M10.8337 19.0998V21.2338C10.8337 21.3808 10.9527 21.4998 11.1007 21.4998H13.2327C13.3807 21.4998 13.4997 21.3808 13.4997 21.2338V19.0998C13.4997 18.9528 13.3807 18.8328 13.2327 18.8328H11.1007C10.9527 18.8328 10.8337 18.9528 10.8337 19.0998Z" fill="#666666"/>
<path fill-rule="evenodd" clip-rule="evenodd" d="M10.8337 11.1027V13.2367C10.8337 13.3837 10.9527 13.5027 11.1007 13.5027H13.2327C13.3807 13.5027 13.4997 13.3837 13.4997 13.2367V11.1027C13.4997 10.9557 13.3807 10.8357 13.2327 10.8357H11.1007C10.9527 10.8357 10.8337 10.9557 10.8337 11.1027Z" fill="#666666"/>
<mask id="mask0_356_4305" style="mask-type:luminance" maskUnits="userSpaceOnUse" x="10" y="2" width="4" height="4">
<path fill-rule="evenodd" clip-rule="evenodd" d="M10.8337 5.50562V2.83882L13.4997 2.83882V5.50562H10.8337Z" fill="white"/>
</mask>
<g mask="url(#mask0_356_4305)">
<path fill-rule="evenodd" clip-rule="evenodd" d="M10.8337 3.10562V5.23962C10.8337 5.38662 10.9527 5.50562 11.1007 5.50562H13.2327C13.3807 5.50562 13.4997 5.38662 13.4997 5.23962V3.10562C13.4997 2.95862 13.3807 2.83862 13.2327 2.83862L11.1007 2.83862C10.9527 2.83862 10.8337 2.95862 10.8337 3.10562Z" fill="#666666"/>
</g>
</svg>
